<?xml version="1.0" encoding="UTF-8" standalone="no"?>
<!DOCTYPE svg PUBLIC "-//W3C//DTD SVG 1.1//EN"
 "http://www.w3.org/Graphics/SVG/1.1/DTD/svg11.dtd">
<!-- Generated by graphviz version 2.38.0 (20140413.2041)
 -->
<!-- Title: controllers_diagram Pages: 1 -->
<svg width="420pt" height="381pt"
 viewBox="0.00 0.00 420.44 381.00" xmlns="http://www.w3.org/2000/svg" xmlns:xlink="http://www.w3.org/1999/xlink">
<g id="graph0" class="graph" transform="scale(1 1) rotate(0) translate(172.107 209.5)">
<title>controllers_diagram</title>
<polygon fill="none" stroke="none" points="-172.107,171.5 -172.107,-209.5 248.331,-209.5 248.331,171.5 -172.107,171.5"/>
<!-- _diagram_info -->
<g id="node1" class="node"><title>_diagram_info</title>
<text text-anchor="start" x="-103.688" y="-17.1" font-family="Times,serif" font-size="13.00">Controllers diagram</text>
<text text-anchor="start" x="-103.688" y="-4.1" font-family="Times,serif" font-size="13.00">Date: Jun 03 2016 &#45; 19:50</text>
<text text-anchor="start" x="-103.688" y="8.9" font-family="Times,serif" font-size="13.00">Migration version: 20140710181927</text>
<text text-anchor="start" x="-103.688" y="21.9" font-family="Times,serif" font-size="13.00">Generated by RailRoady 1.4.2</text>
<text text-anchor="start" x="-103.688" y="34.9" font-family="Times,serif" font-size="13.00">http://railroady.prestonlee.com</text>
</g>
<!-- ApplicationController -->
<g id="node2" class="node"><title>ApplicationController</title>
<path fill="none" stroke="black" d="M-99.8208,-113C-99.8208,-113 15.8208,-113 15.8208,-113 21.8208,-113 27.8208,-119 27.8208,-125 27.8208,-125 27.8208,-193 27.8208,-193 27.8208,-199 21.8208,-205 15.8208,-205 15.8208,-205 -99.8208,-205 -99.8208,-205 -105.821,-205 -111.821,-199 -111.821,-193 -111.821,-193 -111.821,-125 -111.821,-125 -111.821,-119 -105.821,-113 -99.8208,-113"/>
<text text-anchor="middle" x="-42" y="-189.8" font-family="Times,serif" font-size="14.00">ApplicationController</text>
<polyline fill="none" stroke="black" points="-111.821,-183 27.8208,-183 "/>
<polyline fill="none" stroke="black" points="-111.821,-159 27.8208,-159 "/>
<polyline fill="none" stroke="black" points="-111.821,-135 27.8208,-135 "/>
<text text-anchor="start" x="-103.821" y="-119.8" font-family="Times,serif" font-size="14.00">_layout</text>
</g>
<!-- CitiesController -->
<g id="node3" class="node"><title>CitiesController</title>
<path fill="none" stroke="black" d="M-156.107,167C-156.107,167 -73.8931,167 -73.8931,167 -67.8931,167 -61.8931,161 -61.8931,155 -61.8931,155 -61.8931,87 -61.8931,87 -61.8931,81 -67.8931,75 -73.8931,75 -73.8931,75 -156.107,75 -156.107,75 -162.107,75 -168.107,81 -168.107,87 -168.107,87 -168.107,155 -168.107,155 -168.107,161 -162.107,167 -156.107,167"/>
<text text-anchor="middle" x="-115" y="90.2" font-family="Times,serif" font-size="14.00">CitiesController</text>
<polyline fill="none" stroke="black" points="-168.107,97 -61.8931,97 "/>
<polyline fill="none" stroke="black" points="-168.107,121 -61.8931,121 "/>
<polyline fill="none" stroke="black" points="-168.107,145 -61.8931,145 "/>
<text text-anchor="start" x="-160.107" y="160.2" font-family="Times,serif" font-size="14.00">_layout</text>
</g>
<!-- ListingsController -->
<g id="node4" class="node"><title>ListingsController</title>
<path fill="none" stroke="black" d="M137.669,125C137.669,125 232.331,125 232.331,125 238.331,125 244.331,119 244.331,113 244.331,113 244.331,45 244.331,45 244.331,39 238.331,33 232.331,33 232.331,33 137.669,33 137.669,33 131.669,33 125.669,39 125.669,45 125.669,45 125.669,113 125.669,113 125.669,119 131.669,125 137.669,125"/>
<text text-anchor="middle" x="185" y="48.2" font-family="Times,serif" font-size="14.00">ListingsController</text>
<polyline fill="none" stroke="black" points="125.669,55 244.331,55 "/>
<polyline fill="none" stroke="black" points="125.669,79 244.331,79 "/>
<polyline fill="none" stroke="black" points="125.669,103 244.331,103 "/>
<text text-anchor="start" x="133.669" y="118.2" font-family="Times,serif" font-size="14.00">_layout</text>
</g>
<!-- NeighborhoodsController -->
<g id="node5" class="node"><title>NeighborhoodsController</title>
<path fill="none" stroke="black" d="M68.0654,-57C68.0654,-57 203.935,-57 203.935,-57 209.935,-57 215.935,-63 215.935,-69 215.935,-69 215.935,-137 215.935,-137 215.935,-143 209.935,-149 203.935,-149 203.935,-149 68.0654,-149 68.0654,-149 62.0654,-149 56.0654,-143 56.0654,-137 56.0654,-137 56.0654,-69 56.0654,-69 56.0654,-63 62.0654,-57 68.0654,-57"/>
<text text-anchor="middle" x="136" y="-133.8" font-family="Times,serif" font-size="14.00">NeighborhoodsController</text>
<polyline fill="none" stroke="black" points="56.0654,-127 215.935,-127 "/>
<polyline fill="none" stroke="black" points="56.0654,-103 215.935,-103 "/>
<polyline fill="none" stroke="black" points="56.0654,-79 215.935,-79 "/>
<text text-anchor="start" x="64.0654" y="-63.8" font-family="Times,serif" font-size="14.00">_layout</text>
</g>
<!-- UsersController -->
<g id="node6" class="node"><title>UsersController</title>
<path fill="none" stroke="black" d="M-15.7139,167C-15.7139,167 65.7139,167 65.7139,167 71.7139,167 77.7139,161 77.7139,155 77.7139,155 77.7139,87 77.7139,87 77.7139,81 71.7139,75 65.7139,75 65.7139,75 -15.7139,75 -15.7139,75 -21.7139,75 -27.7139,81 -27.7139,87 -27.7139,87 -27.7139,155 -27.7139,155 -27.7139,161 -21.7139,167 -15.7139,167"/>
<text text-anchor="middle" x="25" y="90.2" font-family="Times,serif" font-size="14.00">UsersController</text>
<polyline fill="none" stroke="black" points="-27.7139,97 77.7139,97 "/>
<polyline fill="none" stroke="black" points="-27.7139,121 77.7139,121 "/>
<polyline fill="none" stroke="black" points="-27.7139,145 77.7139,145 "/>
<text text-anchor="start" x="-19.7139" y="160.2" font-family="Times,serif" font-size="14.00">_layout</text>
</g>
</g>
</svg>
