<?xml version="1.0" encoding="UTF-8" standalone="no"?>
<!DOCTYPE svg PUBLIC "-//W3C//DTD SVG 1.1//EN"
 "http://www.w3.org/Graphics/SVG/1.1/DTD/svg11.dtd">
<!-- Generated by graphviz version 2.38.0 (20140413.2041)
 -->
<!-- Title: models_diagram Pages: 1 -->
<svg width="431pt" height="951pt"
 viewBox="0.00 0.00 431.19 951.00" xmlns="http://www.w3.org/2000/svg" xmlns:xlink="http://www.w3.org/1999/xlink">
<g id="graph0" class="graph" transform="scale(1 1) rotate(0) translate(4 947)">
<title>models_diagram</title>
<polygon fill="none" stroke="none" points="-4,4 -4,-947 427.193,-947 427.193,4 -4,4"/>
<!-- _diagram_info -->
<g id="node1" class="node"><title>_diagram_info</title>
<text text-anchor="start" x="8" y="-921.6" font-family="Times,serif" font-size="13.00">Models diagram</text>
<text text-anchor="start" x="8" y="-908.6" font-family="Times,serif" font-size="13.00">Date: Jun 03 2016 &#45; 19:50</text>
<text text-anchor="start" x="8" y="-895.6" font-family="Times,serif" font-size="13.00">Migration version: 20140710181927</text>
<text text-anchor="start" x="8" y="-882.6" font-family="Times,serif" font-size="13.00">Generated by RailRoady 1.4.2</text>
<text text-anchor="start" x="8" y="-869.6" font-family="Times,serif" font-size="13.00">http://railroady.prestonlee.com</text>
</g>
<!-- City -->
<g id="node2" class="node"><title>City</title>
<path fill="none" stroke="black" d="M237.182,-856.5C237.182,-856.5 346.193,-856.5 346.193,-856.5 352.193,-856.5 358.193,-862.5 358.193,-868.5 358.193,-868.5 358.193,-930.5 358.193,-930.5 358.193,-936.5 352.193,-942.5 346.193,-942.5 346.193,-942.5 237.182,-942.5 237.182,-942.5 231.182,-942.5 225.182,-936.5 225.182,-930.5 225.182,-930.5 225.182,-868.5 225.182,-868.5 225.182,-862.5 231.182,-856.5 237.182,-856.5"/>
<text text-anchor="middle" x="291.688" y="-927.3" font-family="Times,serif" font-size="14.00">City</text>
<polyline fill="none" stroke="black" points="225.182,-920.5 358.193,-920.5 "/>
<text text-anchor="start" x="233.182" y="-905.3" font-family="Times,serif" font-size="14.00">id :INTEGER</text>
<text text-anchor="start" x="233.182" y="-891.3" font-family="Times,serif" font-size="14.00">name :varchar</text>
<text text-anchor="start" x="233.182" y="-877.3" font-family="Times,serif" font-size="14.00">created_at :datetime</text>
<text text-anchor="start" x="233.182" y="-863.3" font-family="Times,serif" font-size="14.00">updated_at :datetime</text>
</g>
<!-- Listing -->
<g id="node3" class="node"><title>Listing</title>
<path fill="none" stroke="black" d="M224.731,-510.5C224.731,-510.5 358.645,-510.5 358.645,-510.5 364.645,-510.5 370.645,-516.5 370.645,-522.5 370.645,-522.5 370.645,-668.5 370.645,-668.5 370.645,-674.5 364.645,-680.5 358.645,-680.5 358.645,-680.5 224.731,-680.5 224.731,-680.5 218.731,-680.5 212.731,-674.5 212.731,-668.5 212.731,-668.5 212.731,-522.5 212.731,-522.5 212.731,-516.5 218.731,-510.5 224.731,-510.5"/>
<text text-anchor="middle" x="291.688" y="-665.3" font-family="Times,serif" font-size="14.00">Listing</text>
<polyline fill="none" stroke="black" points="212.731,-658.5 370.645,-658.5 "/>
<text text-anchor="start" x="220.731" y="-643.3" font-family="Times,serif" font-size="14.00">updated_at :datetime</text>
<text text-anchor="start" x="220.731" y="-629.3" font-family="Times,serif" font-size="14.00">address :varchar</text>
<text text-anchor="start" x="220.731" y="-615.3" font-family="Times,serif" font-size="14.00">listing_type :varchar</text>
<text text-anchor="start" x="220.731" y="-601.3" font-family="Times,serif" font-size="14.00">title :varchar</text>
<text text-anchor="start" x="220.731" y="-587.3" font-family="Times,serif" font-size="14.00">description :text</text>
<text text-anchor="start" x="220.731" y="-573.3" font-family="Times,serif" font-size="14.00">price :decimal(8,2)</text>
<text text-anchor="start" x="220.731" y="-559.3" font-family="Times,serif" font-size="14.00">neighborhood_id :integer</text>
<text text-anchor="start" x="220.731" y="-545.3" font-family="Times,serif" font-size="14.00">host_id :integer</text>
<text text-anchor="start" x="220.731" y="-531.3" font-family="Times,serif" font-size="14.00">created_at :datetime</text>
<text text-anchor="start" x="220.731" y="-517.3" font-family="Times,serif" font-size="14.00">id :INTEGER</text>
</g>
<!-- City&#45;&gt;Listing -->
<g id="edge2" class="edge"><title>City&#45;&gt;Listing</title>
<path fill="none" stroke="#6867cd" d="M283.398,-846.097C282.27,-837.081 281.293,-827.787 280.688,-819 277.792,-776.939 279.357,-730.354 282.108,-690.725"/>
<polygon fill="#6867cd" stroke="#6867cd" points="283.412,-846.202 280.263,-856.707 284.068,-851.159 284.724,-856.116 284.724,-856.116 284.724,-856.116 284.068,-851.159 289.185,-855.525 283.412,-846.202 283.412,-846.202"/>
<polygon fill="#6867cd" stroke="#6867cd" points="282.124,-690.515 287.34,-680.869 282.488,-685.528 282.852,-680.542 282.852,-680.542 282.852,-680.542 282.488,-685.528 278.364,-680.214 282.124,-690.515 282.124,-690.515"/>
</g>
<!-- Neighborhood -->
<g id="node4" class="node"><title>Neighborhood</title>
<path fill="none" stroke="black" d="M302.182,-718.5C302.182,-718.5 411.193,-718.5 411.193,-718.5 417.193,-718.5 423.193,-724.5 423.193,-730.5 423.193,-730.5 423.193,-806.5 423.193,-806.5 423.193,-812.5 417.193,-818.5 411.193,-818.5 411.193,-818.5 302.182,-818.5 302.182,-818.5 296.182,-818.5 290.182,-812.5 290.182,-806.5 290.182,-806.5 290.182,-730.5 290.182,-730.5 290.182,-724.5 296.182,-718.5 302.182,-718.5"/>
<text text-anchor="middle" x="356.688" y="-803.3" font-family="Times,serif" font-size="14.00">Neighborhood</text>
<polyline fill="none" stroke="black" points="290.182,-796.5 423.193,-796.5 "/>
<text text-anchor="start" x="298.182" y="-781.3" font-family="Times,serif" font-size="14.00">id :INTEGER</text>
<text text-anchor="start" x="298.182" y="-767.3" font-family="Times,serif" font-size="14.00">name :varchar</text>
<text text-anchor="start" x="298.182" y="-753.3" font-family="Times,serif" font-size="14.00">city_id :integer</text>
<text text-anchor="start" x="298.182" y="-739.3" font-family="Times,serif" font-size="14.00">created_at :datetime</text>
<text text-anchor="start" x="298.182" y="-725.3" font-family="Times,serif" font-size="14.00">updated_at :datetime</text>
</g>
<!-- City&#45;&gt;Neighborhood -->
<g id="edge1" class="edge"><title>City&#45;&gt;Neighborhood</title>
<path fill="none" stroke="#28e88a" d="M316.59,-849.079C320.135,-842.043 323.808,-834.753 327.428,-827.57"/>
<ellipse fill="none" stroke="#28e88a" cx="314.771" cy="-852.688" rx="4.00002" ry="4.00002"/>
<polygon fill="#28e88a" stroke="#28e88a" points="327.469,-827.487 335.988,-820.582 329.719,-823.022 331.969,-818.557 331.969,-818.557 331.969,-818.557 329.719,-823.022 327.951,-816.532 327.469,-827.487 327.469,-827.487"/>
</g>
<!-- Reservation -->
<g id="node5" class="node"><title>Reservation</title>
<path fill="none" stroke="black" d="M278.182,-166.5C278.182,-166.5 387.193,-166.5 387.193,-166.5 393.193,-166.5 399.193,-172.5 399.193,-178.5 399.193,-178.5 399.193,-296.5 399.193,-296.5 399.193,-302.5 393.193,-308.5 387.193,-308.5 387.193,-308.5 278.182,-308.5 278.182,-308.5 272.182,-308.5 266.182,-302.5 266.182,-296.5 266.182,-296.5 266.182,-178.5 266.182,-178.5 266.182,-172.5 272.182,-166.5 278.182,-166.5"/>
<text text-anchor="middle" x="332.688" y="-293.3" font-family="Times,serif" font-size="14.00">Reservation</text>
<polyline fill="none" stroke="black" points="266.182,-286.5 399.193,-286.5 "/>
<text text-anchor="start" x="274.182" y="-271.3" font-family="Times,serif" font-size="14.00">status :varchar</text>
<text text-anchor="start" x="274.182" y="-257.3" font-family="Times,serif" font-size="14.00">checkin :date</text>
<text text-anchor="start" x="274.182" y="-243.3" font-family="Times,serif" font-size="14.00">checkout :date</text>
<text text-anchor="start" x="274.182" y="-229.3" font-family="Times,serif" font-size="14.00">listing_id :integer</text>
<text text-anchor="start" x="274.182" y="-215.3" font-family="Times,serif" font-size="14.00">guest_id :integer</text>
<text text-anchor="start" x="274.182" y="-201.3" font-family="Times,serif" font-size="14.00">created_at :datetime</text>
<text text-anchor="start" x="274.182" y="-187.3" font-family="Times,serif" font-size="14.00">updated_at :datetime</text>
<text text-anchor="start" x="274.182" y="-173.3" font-family="Times,serif" font-size="14.00">id :INTEGER</text>
</g>
<!-- Listing&#45;&gt;Reservation -->
<g id="edge3" class="edge"><title>Listing&#45;&gt;Reservation</title>
<path fill="none" stroke="#3b0d93" d="M352.235,-502.988C358.998,-489.072 364.83,-474.503 368.688,-460 380.998,-413.718 373.186,-360.813 361.737,-318.315"/>
<ellipse fill="none" stroke="#3b0d93" cx="350.411" cy="-506.627" rx="4.00002" ry="4.00002"/>
<polygon fill="#3b0d93" stroke="#3b0d93" points="361.708,-318.209 363.336,-307.365 360.356,-313.395 359.004,-308.582 359.004,-308.582 359.004,-308.582 360.356,-313.395 354.671,-309.798 361.708,-318.209 361.708,-318.209"/>
</g>
<!-- Review -->
<g id="node6" class="node"><title>Review</title>
<path fill="none" stroke="black" d="M178.517,-0.5C178.517,-0.5 296.859,-0.5 296.859,-0.5 302.859,-0.5 308.859,-6.5 308.859,-12.5 308.859,-12.5 308.859,-116.5 308.859,-116.5 308.859,-122.5 302.859,-128.5 296.859,-128.5 296.859,-128.5 178.517,-128.5 178.517,-128.5 172.517,-128.5 166.517,-122.5 166.517,-116.5 166.517,-116.5 166.517,-12.5 166.517,-12.5 166.517,-6.5 172.517,-0.5 178.517,-0.5"/>
<text text-anchor="middle" x="237.688" y="-113.3" font-family="Times,serif" font-size="14.00">Review</text>
<polyline fill="none" stroke="black" points="166.517,-106.5 308.859,-106.5 "/>
<text text-anchor="start" x="174.517" y="-91.3" font-family="Times,serif" font-size="14.00">guest_id :integer</text>
<text text-anchor="start" x="174.517" y="-77.3" font-family="Times,serif" font-size="14.00">description :text</text>
<text text-anchor="start" x="174.517" y="-63.3" font-family="Times,serif" font-size="14.00">rating :integer</text>
<text text-anchor="start" x="174.517" y="-49.3" font-family="Times,serif" font-size="14.00">id :INTEGER</text>
<text text-anchor="start" x="174.517" y="-35.3" font-family="Times,serif" font-size="14.00">reservation_id :integer</text>
<text text-anchor="start" x="174.517" y="-21.3" font-family="Times,serif" font-size="14.00">created_at :datetime</text>
<text text-anchor="start" x="174.517" y="-7.3" font-family="Times,serif" font-size="14.00">updated_at :datetime</text>
</g>
<!-- Listing&#45;&gt;Review -->
<g id="edge4" class="edge"><title>Listing&#45;&gt;Review</title>
<path fill="none" stroke="#3d4ec5" d="M231.945,-501.247C225.682,-487.84 220.295,-473.876 216.688,-460 188.265,-350.668 205.108,-218.721 220.736,-138.516"/>
<polygon fill="#3d4ec5" stroke="#3d4ec5" points="232.037,-501.438 232.362,-512.399 234.223,-505.935 236.409,-510.432 236.409,-510.432 236.409,-510.432 234.223,-505.935 240.456,-508.464 232.037,-501.438 232.037,-501.438"/>
<polygon fill="#3d4ec5" stroke="#3d4ec5" points="220.775,-138.322 227.144,-129.395 221.753,-133.419 222.731,-128.515 222.731,-128.515 222.731,-128.515 221.753,-133.419 218.318,-127.635 220.775,-138.322 220.775,-138.322"/>
</g>
<!-- User -->
<g id="node7" class="node"><title>User</title>
<path fill="none" stroke="black" d="M238.182,-359.5C238.182,-359.5 347.193,-359.5 347.193,-359.5 353.193,-359.5 359.193,-365.5 359.193,-371.5 359.193,-371.5 359.193,-447.5 359.193,-447.5 359.193,-453.5 353.193,-459.5 347.193,-459.5 347.193,-459.5 238.182,-459.5 238.182,-459.5 232.182,-459.5 226.182,-453.5 226.182,-447.5 226.182,-447.5 226.182,-371.5 226.182,-371.5 226.182,-365.5 232.182,-359.5 238.182,-359.5"/>
<text text-anchor="middle" x="292.688" y="-444.3" font-family="Times,serif" font-size="14.00">User</text>
<polyline fill="none" stroke="black" points="226.182,-437.5 359.193,-437.5 "/>
<text text-anchor="start" x="234.182" y="-422.3" font-family="Times,serif" font-size="14.00">id :INTEGER</text>
<text text-anchor="start" x="234.182" y="-408.3" font-family="Times,serif" font-size="14.00">name :varchar</text>
<text text-anchor="start" x="234.182" y="-394.3" font-family="Times,serif" font-size="14.00">created_at :datetime</text>
<text text-anchor="start" x="234.182" y="-380.3" font-family="Times,serif" font-size="14.00">updated_at :datetime</text>
<text text-anchor="start" x="234.182" y="-366.3" font-family="Times,serif" font-size="14.00">host :boolean</text>
</g>
<!-- Listing&#45;&gt;User -->
<g id="edge5" class="edge"><title>Listing&#45;&gt;User</title>
<path fill="none" stroke="#a00ccf" d="M292.201,-500.137C292.256,-489.874 292.312,-479.65 292.365,-469.977"/>
<polygon fill="#a00ccf" stroke="#a00ccf" points="292.2,-500.308 287.645,-510.284 292.173,-505.308 292.145,-510.308 292.145,-510.308 292.145,-510.308 292.173,-505.308 296.645,-510.333 292.2,-500.308 292.2,-500.308"/>
<polygon fill="#a00ccf" stroke="#a00ccf" points="292.366,-469.72 296.92,-459.745 292.393,-464.72 292.42,-459.72 292.42,-459.72 292.42,-459.72 292.393,-464.72 287.92,-459.696 292.366,-469.72 292.366,-469.72"/>
<text text-anchor="middle" x="309.188" y="-480.8" font-family="Times,serif" font-size="14.00">guests</text>
</g>
<!-- Neighborhood&#45;&gt;Listing -->
<g id="edge6" class="edge"><title>Neighborhood&#45;&gt;Listing</title>
<path fill="none" stroke="#2ed0b7" d="M335.158,-710.861C332.627,-704.202 329.995,-697.279 327.335,-690.28"/>
<ellipse fill="none" stroke="#2ed0b7" cx="336.64" cy="-714.759" rx="4.00001" ry="4.00001"/>
<polygon fill="#2ed0b7" stroke="#2ed0b7" points="327.25,-690.056 327.903,-679.11 325.473,-685.382 323.697,-680.708 323.697,-680.708 323.697,-680.708 325.473,-685.382 319.49,-682.307 327.25,-690.056 327.25,-690.056"/>
</g>
<!-- Reservation&#45;&gt;Review -->
<g id="edge7" class="edge"><title>Reservation&#45;&gt;Review</title>
<path fill="none" stroke="#f1096c" d="M289.831,-159.357C285.45,-151.472 281.016,-143.491 276.68,-135.685"/>
<ellipse fill="none" stroke="#f1096c" cx="291.831" cy="-162.958" rx="4.00002" ry="4.00002"/>
<ellipse fill="#f1096c" stroke="#f1096c" cx="274.672" cy="-132.071" rx="4.00002" ry="4.00002"/>
</g>
<!-- User&#45;&gt;Listing -->
<g id="edge8" class="edge"><title>User&#45;&gt;Listing</title>
<path fill="none" stroke="#53293f" d="M289.969,-467.689C289.858,-471.178 289.762,-474.636 289.688,-478 289.529,-485.16 289.452,-492.569 289.438,-500.019"/>
<ellipse fill="none" stroke="#53293f" cx="290.114" cy="-463.522" rx="4" ry="4"/>
<polygon fill="#53293f" stroke="#53293f" points="289.438,-500.186 284.955,-510.194 289.446,-505.186 289.455,-510.186 289.455,-510.186 289.455,-510.186 289.446,-505.186 293.955,-510.178 289.438,-500.186 289.438,-500.186"/>
</g>
<!-- User&#45;&gt;Reservation -->
<g id="edge9" class="edge"><title>User&#45;&gt;Reservation</title>
<path fill="none" stroke="#926e3d" d="M316.312,-349.477C317.171,-346.629 317.969,-343.794 318.688,-341 320.538,-333.804 322.156,-326.256 323.569,-318.66"/>
<polygon fill="#926e3d" stroke="#926e3d" points="316.258,-349.644 308.906,-357.781 314.723,-354.403 313.189,-359.162 313.189,-359.162 313.189,-359.162 314.723,-354.403 317.472,-360.543 316.258,-349.644 316.258,-349.644"/>
<polygon fill="#926e3d" stroke="#926e3d" points="323.593,-318.521 329.743,-309.442 324.451,-313.595 325.309,-308.669 325.309,-308.669 325.309,-308.669 324.451,-313.595 320.876,-307.897 323.593,-318.521 323.593,-318.521"/>
</g>
<!-- User&#45;&gt;Reservation -->
<g id="edge10" class="edge"><title>User&#45;&gt;Reservation</title>
<path fill="none" stroke="#e90945" d="M286.901,-351.253C287.157,-343.048 288.016,-334.762 289.798,-327 290.443,-324.192 291.189,-321.369 292.02,-318.547"/>
<ellipse fill="none" stroke="#e90945" cx="286.867" cy="-355.408" rx="4" ry="4"/>
<polygon fill="#e90945" stroke="#e90945" points="292.044,-318.474 299.428,-310.367 293.597,-313.721 295.151,-308.969 295.151,-308.969 295.151,-308.969 293.597,-313.721 290.874,-307.571 292.044,-318.474 292.044,-318.474"/>
<text text-anchor="middle" x="302.133" y="-329.8" font-family="Times,serif" font-size="14.00">trips</text>
</g>
<!-- User&#45;&gt;Review -->
<g id="edge11" class="edge"><title>User&#45;&gt;Review</title>
<path fill="none" stroke="#68eb0c" d="M269.226,-351.865C264.336,-338.051 259.744,-323.166 256.688,-309 244.539,-252.697 239.933,-187.586 238.286,-138.867"/>
<ellipse fill="none" stroke="#68eb0c" cx="270.602" cy="-355.658" rx="4.00001" ry="4.00001"/>
<polygon fill="#68eb0c" stroke="#68eb0c" points="238.282,-138.724 242.476,-128.592 238.13,-133.726 237.978,-128.729 237.978,-128.729 237.978,-128.729 238.13,-133.726 233.48,-128.865 238.282,-138.724 238.282,-138.724"/>
</g>
</g>
</svg>
