<?xml version="1.0" encoding="UTF-8" standalone="no"?>
<!DOCTYPE svg PUBLIC "-//W3C//DTD SVG 1.1//EN"
 "http://www.w3.org/Graphics/SVG/1.1/DTD/svg11.dtd">
<!-- Generated by graphviz version 2.38.0 (20140413.2041)
 -->
<!-- Title: models_diagram Pages: 1 -->
<svg width="382pt" height="472pt"
 viewBox="0.00 0.00 381.88 472.00" xmlns="http://www.w3.org/2000/svg" xmlns:xlink="http://www.w3.org/1999/xlink">
<g id="graph0" class="graph" transform="scale(1 1) rotate(0) translate(4 468)">
<title>models_diagram</title>
<polygon fill="none" stroke="none" points="-4,4 -4,-468 377.882,-468 377.882,4 -4,4"/>
<!-- _diagram_info -->
<g id="node1" class="node"><title>_diagram_info</title>
<text text-anchor="start" x="8" y="-449.6" font-family="Times,serif" font-size="13.00">Models diagram</text>
<text text-anchor="start" x="8" y="-436.6" font-family="Times,serif" font-size="13.00">Date: Jun 03 2016 &#45; 19:50</text>
<text text-anchor="start" x="8" y="-423.6" font-family="Times,serif" font-size="13.00">Migration version: 20140710181927</text>
<text text-anchor="start" x="8" y="-410.6" font-family="Times,serif" font-size="13.00">Generated by RailRoady 1.4.2</text>
<text text-anchor="start" x="8" y="-397.6" font-family="Times,serif" font-size="13.00">http://railroady.prestonlee.com</text>
</g>
<!-- City -->
<g id="node2" class="node"><title>City</title>
<ellipse fill="none" stroke="black" cx="252.688" cy="-427.5" rx="27" ry="18"/>
<text text-anchor="middle" x="252.688" y="-423.3" font-family="Times,serif" font-size="14.00">City</text>
</g>
<!-- Listing -->
<g id="node3" class="node"><title>Listing</title>
<ellipse fill="none" stroke="black" cx="251.688" cy="-263" rx="35.3303" ry="18"/>
<text text-anchor="middle" x="251.688" y="-258.8" font-family="Times,serif" font-size="14.00">Listing</text>
</g>
<!-- City&#45;&gt;Listing -->
<g id="edge2" class="edge"><title>City&#45;&gt;Listing</title>
<path fill="none" stroke="#96f504" d="M247.604,-399.675C244.072,-377.725 240.381,-345.866 242.688,-318 243.423,-309.111 244.829,-299.483 246.315,-290.852"/>
<polygon fill="#96f504" stroke="#96f504" points="247.614,-399.737 244.862,-410.352 248.456,-404.666 249.298,-409.594 249.298,-409.594 249.298,-409.594 248.456,-404.666 253.733,-408.837 247.614,-399.737 247.614,-399.737"/>
<polygon fill="#96f504" stroke="#96f504" points="246.329,-290.772 252.554,-281.743 247.228,-285.853 248.127,-280.934 248.127,-280.934 248.127,-280.934 247.228,-285.853 243.7,-280.126 246.329,-290.772 246.329,-290.772"/>
</g>
<!-- Neighborhood -->
<g id="node4" class="node"><title>Neighborhood</title>
<ellipse fill="none" stroke="black" cx="312.688" cy="-336" rx="61.3891" ry="18"/>
<text text-anchor="middle" x="312.688" y="-331.8" font-family="Times,serif" font-size="14.00">Neighborhood</text>
</g>
<!-- City&#45;&gt;Neighborhood -->
<g id="edge1" class="edge"><title>City&#45;&gt;Neighborhood</title>
<path fill="none" stroke="#4cbc8d" d="M267.96,-403.718C276.439,-391.071 287.005,-375.311 295.738,-362.284"/>
<ellipse fill="none" stroke="#4cbc8d" cx="265.642" cy="-407.177" rx="4.00002" ry="4.00002"/>
<polygon fill="#4cbc8d" stroke="#4cbc8d" points="295.874,-362.08 305.181,-356.279 298.659,-357.927 301.443,-353.774 301.443,-353.774 301.443,-353.774 298.659,-357.927 297.705,-351.268 295.874,-362.08 295.874,-362.08"/>
</g>
<!-- Reservation -->
<g id="node5" class="node"><title>Reservation</title>
<ellipse fill="none" stroke="black" cx="308.688" cy="-91" rx="52.1934" ry="18"/>
<text text-anchor="middle" x="308.688" y="-86.8" font-family="Times,serif" font-size="14.00">Reservation</text>
</g>
<!-- Listing&#45;&gt;Reservation -->
<g id="edge3" class="edge"><title>Listing&#45;&gt;Reservation</title>
<path fill="none" stroke="#774e65" d="M280.982,-244.142C286.742,-239.288 292.104,-233.537 295.688,-227 314.158,-193.315 314.365,-147.731 312.087,-119.098"/>
<ellipse fill="none" stroke="#774e65" cx="277.804" cy="-246.601" rx="4.00002" ry="4.00002"/>
<polygon fill="#774e65" stroke="#774e65" points="312.074,-118.969 315.604,-108.587 311.599,-113.992 311.124,-109.015 311.124,-109.015 311.124,-109.015 311.599,-113.992 306.645,-109.442 312.074,-118.969 312.074,-118.969"/>
</g>
<!-- Review -->
<g id="node6" class="node"><title>Review</title>
<ellipse fill="none" stroke="black" cx="228.688" cy="-18" rx="37.2421" ry="18"/>
<text text-anchor="middle" x="228.688" y="-13.8" font-family="Times,serif" font-size="14.00">Review</text>
</g>
<!-- Listing&#45;&gt;Review -->
<g id="edge4" class="edge"><title>Listing&#45;&gt;Review</title>
<path fill="none" stroke="#4cfacd" d="M239.145,-236.314C233.863,-224.109 228.333,-209.128 225.688,-195 215.995,-143.23 220.713,-81.3959 224.831,-46.513"/>
<polygon fill="#4cfacd" stroke="#4cfacd" points="239.15,-236.325 239.168,-247.291 241.209,-240.881 243.269,-245.438 243.269,-245.438 243.269,-245.438 241.209,-240.881 247.369,-243.584 239.15,-236.325 239.15,-236.325"/>
<polygon fill="#4cfacd" stroke="#4cfacd" points="224.883,-46.1034 230.593,-36.7418 225.505,-41.1423 226.128,-36.1813 226.128,-36.1813 226.128,-36.1813 225.505,-41.1423 221.663,-35.6207 224.883,-46.1034 224.883,-46.1034"/>
</g>
<!-- User -->
<g id="node7" class="node"><title>User</title>
<ellipse fill="none" stroke="black" cx="261.688" cy="-177" rx="27" ry="18"/>
<text text-anchor="middle" x="261.688" y="-172.8" font-family="Times,serif" font-size="14.00">User</text>
</g>
<!-- Listing&#45;&gt;User -->
<g id="edge5" class="edge"><title>Listing&#45;&gt;User</title>
<path fill="none" stroke="#71e5a9" d="M254.896,-235.055C256.034,-225.495 257.314,-214.735 258.455,-205.158"/>
<polygon fill="#71e5a9" stroke="#71e5a9" points="254.894,-235.071 249.243,-244.469 254.303,-240.036 253.711,-245.001 253.711,-245.001 253.711,-245.001 254.303,-240.036 258.18,-245.533 254.894,-235.071 254.894,-235.071"/>
<polygon fill="#71e5a9" stroke="#71e5a9" points="258.485,-204.903 264.136,-195.505 259.076,-199.938 259.667,-194.973 259.667,-194.973 259.667,-194.973 259.076,-199.938 255.199,-194.441 258.485,-204.903 258.485,-204.903"/>
<text text-anchor="middle" x="274.188" y="-215.8" font-family="Times,serif" font-size="14.00">guests</text>
</g>
<!-- Neighborhood&#45;&gt;Listing -->
<g id="edge6" class="edge"><title>Neighborhood&#45;&gt;Listing</title>
<path fill="none" stroke="#5bc9cf" d="M292.821,-311.876C286.182,-304.149 278.775,-295.528 272.096,-287.753"/>
<ellipse fill="none" stroke="#5bc9cf" cx="295.625" cy="-315.14" rx="4.00002" ry="4.00002"/>
<polygon fill="#5bc9cf" stroke="#5bc9cf" points="271.721,-287.317 268.618,-276.8 268.463,-283.525 265.204,-279.732 265.204,-279.732 265.204,-279.732 268.463,-283.525 261.791,-282.665 271.721,-287.317 271.721,-287.317"/>
</g>
<!-- Reservation&#45;&gt;Review -->
<g id="edge7" class="edge"><title>Reservation&#45;&gt;Review</title>
<path fill="none" stroke="#95e72f" d="M284.257,-68.318C273.92,-59.1436 261.939,-48.5102 251.754,-39.4711"/>
<ellipse fill="none" stroke="#95e72f" cx="287.543" cy="-71.2339" rx="4.00002" ry="4.00002"/>
<ellipse fill="#95e72f" stroke="#95e72f" cx="248.667" cy="-36.7314" rx="4.00002" ry="4.00002"/>
</g>
<!-- User&#45;&gt;Listing -->
<g id="edge8" class="edge"><title>User&#45;&gt;Listing</title>
<path fill="none" stroke="#9a2b73" d="M253.719,-202.673C252.88,-206.109 252.161,-209.62 251.688,-213 250.728,-219.856 250.378,-227.304 250.347,-234.275"/>
<ellipse fill="none" stroke="#9a2b73" cx="254.788" cy="-198.745" rx="4.00001" ry="4.00001"/>
<polygon fill="#9a2b73" stroke="#9a2b73" points="250.354,-234.686 246.021,-244.759 250.437,-239.685 250.521,-244.684 250.521,-244.684 250.521,-244.684 250.437,-239.685 255.02,-244.609 250.354,-234.686 250.354,-234.686"/>
</g>
<!-- User&#45;&gt;Reservation -->
<g id="edge9" class="edge"><title>User&#45;&gt;Reservation</title>
<path fill="none" stroke="#33850e" d="M280.293,-152.502C282.924,-148.751 285.48,-144.839 287.688,-141 291.685,-134.05 295.381,-126.193 298.523,-118.838"/>
<polygon fill="#33850e" stroke="#33850e" points="280.076,-152.798 270.525,-158.187 277.113,-156.826 274.15,-160.853 274.15,-160.853 274.15,-160.853 277.113,-156.826 277.775,-163.52 280.076,-152.798 280.076,-152.798"/>
<polygon fill="#33850e" stroke="#33850e" points="298.657,-118.511 306.605,-110.956 300.548,-113.882 302.439,-109.254 302.439,-109.254 302.439,-109.254 300.548,-113.882 298.274,-107.551 298.657,-118.511 298.657,-118.511"/>
</g>
<!-- User&#45;&gt;Reservation -->
<g id="edge10" class="edge"><title>User&#45;&gt;Reservation</title>
<path fill="none" stroke="#e504f0" d="M255.302,-151.131C254.481,-143.051 255.005,-134.295 258.798,-127 261.745,-121.333 266.077,-116.392 270.977,-112.15"/>
<ellipse fill="none" stroke="#e504f0" cx="255.946" cy="-155.265" rx="4.00001" ry="4.00001"/>
<polygon fill="#e504f0" stroke="#e504f0" points="271.053,-112.092 281.742,-109.643 275.039,-109.074 279.026,-106.055 279.026,-106.055 279.026,-106.055 275.039,-109.074 276.309,-102.468 271.053,-112.092 271.053,-112.092"/>
<text text-anchor="middle" x="271.133" y="-129.8" font-family="Times,serif" font-size="14.00">trips</text>
</g>
<!-- User&#45;&gt;Review -->
<g id="edge11" class="edge"><title>User&#45;&gt;Review</title>
<path fill="none" stroke="#371f2f" d="M253.549,-151.467C252.515,-147.973 251.527,-144.409 250.688,-141 242.753,-108.779 236.396,-71.1157 232.594,-46.2536"/>
<ellipse fill="none" stroke="#371f2f" cx="254.815" cy="-155.565" rx="4.00001" ry="4.00001"/>
<polygon fill="#371f2f" stroke="#371f2f" points="232.557,-46.0062 235.528,-35.4504 231.817,-41.0612 231.077,-36.1163 231.077,-36.1163 231.077,-36.1163 231.817,-41.0612 226.627,-36.7821 232.557,-46.0062 232.557,-46.0062"/>
</g>
</g>
</svg>
